<?xml version="1.0" encoding="UTF-8" standalone="no"?>
<svg
   xmlns:dc="http://purl.org/dc/elements/1.1/"
   xmlns:cc="http://creativecommons.org/ns#"
   xmlns:rdf="http://www.w3.org/1999/02/22-rdf-syntax-ns#"
   xmlns:svg="http://www.w3.org/2000/svg"
   xmlns="http://www.w3.org/2000/svg"
   xmlns:sodipodi="http://sodipodi.sourceforge.net/DTD/sodipodi-0.dtd"
   xmlns:inkscape="http://www.inkscape.org/namespaces/inkscape"
   width="1920"
   height="1080"
   viewBox="0 0 508.00001 285.74999"
   version="1.1"
   id="svg8"
   inkscape:version="1.0.2 (e86c870879, 2021-01-15)"
   sodipodi:docname="sway.svg">
  <defs
     id="defs2">
    <clipPath
       clipPathUnits="userSpaceOnUse"
       id="clipPath849">
      <rect
         style="fill:#ff5555;fill-opacity:0.129311;stroke-width:7.9375"
         id="rect851"
         width="198.82118"
         height="121.40607"
         x="-52.022408"
         y="-376.63226" />
    </clipPath>
  </defs>
  <sodipodi:namedview
     id="base"
     pagecolor="#ffffff"
     bordercolor="#666666"
     borderopacity="1.0"
     inkscape:pageopacity="0.0"
     inkscape:pageshadow="2"
     inkscape:zoom="0.175"
     inkscape:cx="1646.199"
     inkscape:cy="1911.0613"
     inkscape:document-units="px"
     inkscape:current-layer="layer1"
     inkscape:document-rotation="0"
     showgrid="false"
     inkscape:snap-bbox="true"
     inkscape:bbox-paths="true"
     inkscape:bbox-nodes="true"
     inkscape:snap-bbox-edge-midpoints="true"
     inkscape:snap-bbox-midpoints="true"
     inkscape:object-paths="true"
     inkscape:snap-intersection-paths="true"
     inkscape:snap-smooth-nodes="true"
     inkscape:snap-midpoints="true"
     inkscape:snap-object-midpoints="true"
     inkscape:snap-center="true"
     inkscape:snap-text-baseline="true"
     inkscape:snap-page="true"
     inkscape:window-width="1920"
     inkscape:window-height="1013"
     inkscape:window-x="0"
     inkscape:window-y="28"
     inkscape:window-maximized="1"
     units="px" />
  <metadata
     id="metadata5">
    <rdf:RDF>
      <cc:Work
         rdf:about="">
        <dc:format>image/svg+xml</dc:format>
        <dc:type
           rdf:resource="http://purl.org/dc/dcmitype/StillImage" />
        <dc:title></dc:title>
      </cc:Work>
    </rdf:RDF>
  </metadata>
  <g
     inkscape:label="Слой 1"
     inkscape:groupmode="layer"
     id="layer1">
    <rect
       style="opacity:1;fill:#ff9955;fill-opacity:1;stroke-width:1;stroke-miterlimit:4;stroke-dasharray:none"
       id="rect993"
       width="508"
       height="285.75"
       x="-3.8888893e-06"
       y="-2.1875003e-06" />
    <path
       id="path995"
       style="fill:#000000;fill-opacity:1;stroke-width:0.889704;stroke-miterlimit:4;stroke-dasharray:none"
       d="m 198.40494,110.06356 v 7.02077 h 6.95823 6.95875 v -7.02077 h -6.95875 z m 21.07727,3.42925 v 10.52029 h 10.54406 10.54457 v -10.52029 h -10.54457 z m -24.59695,7.09414 v 7.02076 h 6.95823 v -7.02076 z m 10.64741,0.15245 v 3.51451 6.95307 h -3.76101 -10.46706 -3.51452 v 3.51451 10.46706 h 3.51452 v -10.46706 h 10.46706 10.7518 v -3.51451 h -3.47627 v -6.95307 h 6.93859 v -3.51451 h -6.93859 z m 10.41177,6.89053 v 10.54768 h 10.5668 v -10.54768 z m 14.13609,3.53312 v 7.02025 h 6.95823 v -7.02025 z m -42.23773,17.61701 v 7.05332 10.49238 h 7.05331 13.99398 v 3.43907 H 187.8428 v 7.05331 h 28.1006 v -7.05331 -10.49238 h -21.04729 v -3.43907 h 21.04729 v -7.05332 z m 35.1534,0 v 21.0473 7.0528 h 28.10061 v -7.0528 -21.0473 h -7.0528 v 21.0473 h -3.47058 v -21.0473 h -7.05332 v 21.0473 h -3.47007 v -21.0473 z m 35.15393,0 v 7.05332 3.47007 7.05332 10.52339 h 7.05333 v -10.52339 h 13.99397 v 10.52339 h 7.05332 v -28.1001 h -21.04729 z m 35.15393,0 v 17.5457 0.031 h 10.52338 v 10.49238 h 7.05385 v -10.49238 h 3.47006 7.05281 v -7.05332 -10.49238 h -7.05281 v 10.49238 h -13.99397 v -10.52339 z m -28.1006,7.05332 h 13.99397 v 3.47007 h -13.99397 z" />
    <path
       style="fill:#ffffff;fill-opacity:1;stroke-width:0.889708;stroke-miterlimit:4;stroke-dasharray:none"
       d="m 292.10975,147.58584 v 17.54558 0.0311 h 10.52368 v 10.49253 h 7.05352 v -10.49253 h 3.47016 7.05305 v -7.05305 -10.49253 h -7.05305 v 10.49253 h -13.99385 v -10.52369 z"
       id="path997" />
    <path
       id="path999"
       style="fill:#ffffff;fill-opacity:1;stroke-width:0.889709;stroke-miterlimit:4;stroke-dasharray:none"
       d="m 256.95644,147.58565 v 7.05373 3.47031 7.05295 10.52365 h 7.05295 v -10.52365 h 13.99396 v 10.52365 h 7.05334 v -28.10064 h -21.0473 z m 7.05295,7.05373 h 13.99396 v 3.47031 h -13.99396 z" />
    <path
       style="fill:#ffffff;fill-opacity:1;stroke-width:0.889708;stroke-miterlimit:4;stroke-dasharray:none"
       d="m 221.80236,147.58584 v 21.04736 7.05306 h 28.10041 v -7.05306 -21.04736 h -7.05305 v 21.04736 h -3.47017 v -21.04736 h -7.05351 v 21.04736 h -3.47017 v -21.04736 z"
       id="path1001" />
    <path
       style="fill:#ffffff;fill-opacity:1;stroke-width:0.889708;stroke-miterlimit:4;stroke-dasharray:none"
       d="m 186.64889,147.58584 v 7.05351 10.49207 h 7.05305 13.99386 v 3.43947 h -21.04691 v 7.05306 h 28.10041 v -7.05306 -10.49252 h -21.04736 v -3.43902 h 21.04736 v -7.05351 z"
       id="path1003" />
    <path
       id="path1005"
       style="fill:#50fa7b;fill-opacity:1;stroke-width:0.911371;stroke-miterlimit:4;stroke-dasharray:none"
       d="m 197.21106,108.86965 v 7.02052 h 6.95821 6.95867 v -7.02052 h -6.95867 z m 21.07714,3.42894 v 10.52047 h 10.54384 10.54476 v -10.52047 h -10.54476 z m -24.59679,7.09427 v 7.02054 h 6.95821 v -7.02054 z m 21.05881,7.04298 v 10.54751 h 10.56675 v -10.54751 z m 14.13634,3.53295 v 7.02052 h 6.95821 v -7.02052 z" />
    <path
       id="path1007"
       style="fill:#ffffff;fill-opacity:1;stroke-width:0.914079;stroke-miterlimit:4;stroke-dasharray:none"
       d="m 204.33833,119.54544 v 3.51462 6.95271 h -3.76064 -10.46733 -3.51462 v 3.51461 10.46733 h 3.51462 v -10.46733 h 10.46733 10.75184 v -3.51461 h -3.47658 v -6.95271 h 6.93896 v -3.51462 h -6.93896 z" />
    <rect
       style="opacity:1;fill:#00ccff;fill-opacity:1;stroke-width:1;stroke-miterlimit:4;stroke-dasharray:none"
       id="rect1009"
       width="508"
       height="285.75"
       x="-3.8888893e-06"
       y="571.5" />
    <path
       id="path1011"
       style="fill:#000000;fill-opacity:1;stroke-width:0.889704;stroke-miterlimit:4;stroke-dasharray:none"
       d="m 198.40494,681.56356 v 7.02077 h 6.95823 6.95875 v -7.02077 h -6.95875 z m 21.07727,3.42925 v 10.52029 h 10.54406 10.54457 v -10.52029 h -10.54457 z m -24.59695,7.09414 v 7.02076 h 6.95823 v -7.02076 z m 10.64741,0.15245 v 3.51451 6.95307 h -3.76101 -10.46706 -3.51452 v 3.51451 10.46711 h 3.51452 v -10.46711 h 10.46706 10.7518 v -3.51451 h -3.47627 v -6.95307 h 6.93859 v -3.51451 h -6.93859 z m 10.41177,6.89053 v 10.54768 h 10.5668 v -10.54768 z m 14.13609,3.53312 v 7.02025 h 6.95823 v -7.02025 z M 187.8428,720.2801 v 7.0533 10.4924 h 7.05331 13.99398 v 3.439 H 187.8428 v 7.0533 h 28.1006 v -7.0533 -10.4923 h -21.04729 v -3.4391 h 21.04729 v -7.0533 z m 35.1534,0 v 21.0473 7.0528 h 28.10061 v -7.0528 -21.0473 h -7.0528 v 21.0473 h -3.47058 v -21.0473 h -7.05332 v 21.0473 h -3.47007 v -21.0473 z m 35.15393,0 v 7.0533 3.4701 7.0533 10.5234 h 7.05333 v -10.5234 h 13.99397 v 10.5234 h 7.05332 v -28.1001 h -21.04729 z m 35.15393,0 v 17.5457 0.031 h 10.52338 v 10.4923 h 7.05385 v -10.4923 h 3.47006 7.05281 v -7.0534 -10.4923 h -7.05281 v 10.4923 h -13.99397 v -10.5233 z m -28.1006,7.0533 h 13.99397 v 3.4701 h -13.99397 z" />
    <path
       style="fill:#ffffff;fill-opacity:1;stroke-width:0.889708;stroke-miterlimit:4;stroke-dasharray:none"
       d="m 292.10975,719.0858 v 17.5456 0.031 h 10.52368 v 10.4926 h 7.05352 v -10.4926 h 3.47016 7.05305 v -7.053 -10.4926 h -7.05305 v 10.4926 h -13.99385 v -10.5237 z"
       id="path1013" />
    <path
       id="path1015"
       style="fill:#ffffff;fill-opacity:1;stroke-width:0.889709;stroke-miterlimit:4;stroke-dasharray:none"
       d="m 256.95644,719.0857 v 7.0537 3.4703 7.0529 10.5237 h 7.05295 v -10.5237 h 13.99396 v 10.5237 h 7.05334 v -28.1006 h -21.0473 z m 7.05295,7.0537 h 13.99396 v 3.4703 h -13.99396 z" />
    <path
       style="fill:#ffffff;fill-opacity:1;stroke-width:0.889708;stroke-miterlimit:4;stroke-dasharray:none"
       d="m 221.80236,719.0858 v 21.0474 7.0531 h 28.10041 v -7.0531 -21.0474 h -7.05305 v 21.0474 h -3.47017 v -21.0474 h -7.05351 v 21.0474 h -3.47017 v -21.0474 z"
       id="path1017" />
    <path
       style="fill:#ffffff;fill-opacity:1;stroke-width:0.889708;stroke-miterlimit:4;stroke-dasharray:none"
       d="m 186.64889,719.0858 v 7.0536 10.492 h 7.05305 13.99386 v 3.4395 h -21.04691 v 7.0531 h 28.10041 v -7.0531 -10.4925 h -21.04736 v -3.439 h 21.04736 v -7.0536 z"
       id="path1019" />
    <path
       id="path1021"
       style="fill:#50fa7b;fill-opacity:1;stroke-width:0.911371;stroke-miterlimit:4;stroke-dasharray:none"
       d="m 197.21106,680.36965 v 7.02052 h 6.95821 6.95867 v -7.02052 h -6.95867 z m 21.07714,3.42894 v 10.52047 h 10.54384 10.54476 v -10.52047 h -10.54476 z m -24.59679,7.09427 v 7.02054 h 6.95821 v -7.02054 z m 21.05881,7.04298 v 10.54751 h 10.56675 v -10.54751 z m 14.13634,3.53295 v 7.02052 h 6.95821 v -7.02052 z" />
    <path
       id="path1023"
       style="fill:#ffffff;fill-opacity:1;stroke-width:0.914079;stroke-miterlimit:4;stroke-dasharray:none"
       d="m 204.33833,691.04544 v 3.51462 6.95271 h -3.76064 -10.46733 -3.51462 v 3.51461 10.46732 h 3.51462 v -10.46732 h 10.46733 10.75184 v -3.51461 h -3.47658 v -6.95271 h 6.93896 v -3.51462 h -6.93896 z" />
    <rect
       style="opacity:1;fill:#f9f9f9;fill-opacity:1;stroke-width:1;stroke-miterlimit:4;stroke-dasharray:none"
       id="rect1025"
       width="508"
       height="285.75"
       x="-3.8888893e-06"
       y="285.75" />
    <path
       id="path1027"
       style="fill:#000000;fill-opacity:1;stroke-width:0.889704;stroke-miterlimit:4;stroke-dasharray:none"
       d="m 198.40494,395.81356 v 7.02077 h 6.95823 6.95875 v -7.02077 h -6.95875 z m 21.07727,3.42925 v 10.52029 h 10.54406 10.54457 v -10.52029 h -10.54457 z m -24.59695,7.09414 v 7.02076 h 6.95823 v -7.02076 z m 10.64741,0.15245 v 3.51451 6.95307 h -3.76101 -10.46706 -3.51452 v 3.51451 10.46706 h 3.51452 v -10.46706 h 10.46706 10.7518 v -3.51451 h -3.47627 v -6.95307 h 6.93859 v -3.51451 h -6.93859 z m 10.41177,6.89053 v 10.54768 h 10.5668 v -10.54768 z m 14.13609,3.53312 v 7.02025 h 6.95823 v -7.02025 z m -42.23773,17.61701 v 7.05332 10.49238 h 7.05331 13.99398 v 3.43907 H 187.8428 v 7.05331 h 28.1006 v -7.05331 -10.49238 h -21.04729 v -3.43907 h 21.04729 v -7.05332 z m 35.1534,0 v 21.0473 7.0528 h 28.10061 v -7.0528 -21.0473 h -7.0528 v 21.0473 h -3.47058 v -21.0473 h -7.05332 v 21.0473 h -3.47007 v -21.0473 z m 35.15393,0 v 7.05332 3.47007 7.05332 10.52339 h 7.05333 v -10.52339 h 13.99397 v 10.52339 h 7.05332 v -28.1001 h -21.04729 z m 35.15393,0 v 17.5457 0.031 h 10.52338 v 10.49238 h 7.05385 v -10.49238 h 3.47006 7.05281 v -7.05332 -10.49238 h -7.05281 v 10.49238 h -13.99397 v -10.52339 z m -28.1006,7.05332 h 13.99397 v 3.47007 h -13.99397 z" />
    <path
       style="fill:#00ccff;fill-opacity:1;stroke-width:0.889708;stroke-miterlimit:4;stroke-dasharray:none"
       d="m 292.10975,433.33584 v 17.54558 0.0311 h 10.52368 v 10.49253 h 7.05352 v -10.49253 h 3.47016 7.05305 v -7.05305 -10.49253 h -7.05305 v 10.49253 h -13.99385 v -10.52369 z"
       id="path1029" />
    <path
       id="path1031"
       style="fill:#00ccff;fill-opacity:1;stroke-width:0.889709;stroke-miterlimit:4;stroke-dasharray:none"
       d="m 256.95644,433.33565 v 7.05373 3.47031 7.05295 10.52365 h 7.05295 v -10.52365 h 13.99396 v 10.52365 h 7.05334 v -28.10064 h -21.0473 z m 7.05295,7.05373 h 13.99396 v 3.47031 h -13.99396 z" />
    <path
       style="fill:#00ccff;fill-opacity:1;stroke-width:0.889708;stroke-miterlimit:4;stroke-dasharray:none"
       d="m 221.80236,433.33584 v 21.04736 7.05306 h 28.10041 v -7.05306 -21.04736 h -7.05305 v 21.04736 h -3.47017 v -21.04736 h -7.05351 v 21.04736 h -3.47017 v -21.04736 z"
       id="path1033" />
    <path
       style="fill:#00ccff;fill-opacity:1;stroke-width:0.889708;stroke-miterlimit:4;stroke-dasharray:none"
       d="m 186.64889,433.33584 v 7.05351 10.49207 h 7.05305 13.99386 v 3.43947 h -21.04691 v 7.05306 h 28.10041 v -7.05306 -10.49252 h -21.04736 v -3.43902 h 21.04736 v -7.05351 z"
       id="path1035" />
    <path
       id="path1037"
       style="fill:#50fa7b;fill-opacity:1;stroke-width:0.911371;stroke-miterlimit:4;stroke-dasharray:none"
       d="m 197.21106,394.61965 v 7.02052 h 6.95821 6.95867 v -7.02052 h -6.95867 z m 21.07714,3.42894 v 10.52047 h 10.54384 10.54476 v -10.52047 h -10.54476 z m -24.59679,7.09427 v 7.02054 h 6.95821 v -7.02054 z m 21.05881,7.04298 v 10.54751 h 10.56675 v -10.54751 z m 14.13634,3.53295 v 7.02052 h 6.95821 v -7.02052 z" />
    <path
       id="path1039"
       style="fill:#00ccff;fill-opacity:1;stroke-width:0.914079;stroke-miterlimit:4;stroke-dasharray:none"
       d="m 204.33833,405.29544 v 3.51462 6.95271 h -3.76064 -10.46733 -3.51462 v 3.51461 10.46733 h 3.51462 v -10.46733 h 10.46733 10.75184 v -3.51461 h -3.47658 v -6.95271 h 6.93896 v -3.51462 h -6.93896 z" />
  </g>
</svg>
